<?xml version="1.0" standalone="no"?><!DOCTYPE svg PUBLIC "-//W3C//DTD SVG 1.1//EN" "http://www.w3.org/Graphics/SVG/1.1/DTD/svg11.dtd"><svg t="1755485848101" class="icon" viewBox="0 0 1024 1024" version="1.1" xmlns="http://www.w3.org/2000/svg" p-id="4596" xmlns:xlink="http://www.w3.org/1999/xlink" width="64" height="64"><path d="M0.5 653.3v178c0 81.7 212.4 148.5 475.1 148.4h6.3v-178c-2.3 0.1-4.6 0.1-6.8 0.1C212.9 801.8 0.5 735.5 0.5 653.3zM475.1 445.7c262.2 0 475-66.3 475.1-148.6V178.6c0-82.2-212.9-148.5-475.1-148.5S0 96.4 0 178.7v118.5c0 81.7 212.4 148.5 475.1 148.5zM899.2 631.3c32.6-20.1 51-42.9 51-67.1v-178c0 57.3-103.3 106.8-254.6 131.6l203.6 113.5zM0 386.2v178c0 81.7 212.4 148.5 475.1 148.5h6.8v-178h-6.8C212.9 534.7 0 468.5 0 386.2zM602.4 572.3v421.6L1024 783.1z" fill="#464646" p-id="4597"></path></svg>