<?xml version="1.0" standalone="no"?><!DOCTYPE svg PUBLIC "-//W3C//DTD SVG 1.1//EN" "http://www.w3.org/Graphics/SVG/1.1/DTD/svg11.dtd"><svg t="1763965442169" class="icon" viewBox="0 0 1024 1024" version="1.1" xmlns="http://www.w3.org/2000/svg" p-id="9434" xmlns:xlink="http://www.w3.org/1999/xlink" width="200" height="200"><path d="M512 122.88c-215.04 0-389.12 174.08-389.12 389.12s174.08 389.12 389.12 389.12 389.12-174.08 389.12-389.12-174.08-389.12-389.12-389.12z m-48.128 415.232V346.624c0-24.064 19.456-44.032 44.032-44.032 24.064 0 44.032 19.456 44.032 44.032v191.488c0 24.064-19.456 44.032-44.032 44.032-24.064-0.512-43.52-19.968-44.032-44.032z m44.032 183.296c-11.776 0-22.016-3.584-30.208-12.288-8.704-8.192-13.312-18.432-13.312-31.232 0-12.288 4.096-22.528 13.312-31.232 8.192-8.704 18.432-12.8 30.72-12.8 11.776 0 23.04 4.608 31.744 12.288 8.192 8.704 12.288 18.944 12.288 31.744s-4.096 23.552-12.288 31.232c-9.216 8.704-19.968 12.288-32.256 12.288z" fill="#FE5838" p-id="9435"></path><path d="M233.472 326.144c-2.56 0-5.12-0.512-7.168-2.048-7.68-4.096-10.24-13.312-6.144-20.992 24.064-44.032 62.464-79.36 108.544-99.84l4.096-2.048c7.68-3.584 16.896 0 20.48 7.68 3.584 7.68 0 16.896-7.68 20.48l-4.096 2.048c-39.424 17.92-73.216 48.64-93.696 86.528-3.584 5.632-8.704 8.192-14.336 8.192zM198.656 368.64c-7.168-4.096-9.216-13.312-5.12-19.968l5.632-9.216c4.096-7.168 13.312-9.216 19.968-5.12 7.168 4.096 9.216 13.312 5.12 19.968l-5.12 9.216c-4.096 7.168-13.312 9.216-20.48 5.12z" fill="#FFFFFF" p-id="9436"></path></svg>