<?xml version="1.0" standalone="no"?><!DOCTYPE svg PUBLIC "-//W3C//DTD SVG 1.1//EN" "http://www.w3.org/Graphics/SVG/1.1/DTD/svg11.dtd"><svg t="1755485838244" class="icon" viewBox="0 0 1024 1024" version="1.1" xmlns="http://www.w3.org/2000/svg" p-id="4451" xmlns:xlink="http://www.w3.org/1999/xlink" width="64" height="64"><path d="M512 0c282.3168 0 512 229.6832 512 512s-229.6832 512-512 512S0 794.3168 0 512 229.6832 0 512 0z m0 78.7456c-238.848 0-433.2544 194.4064-433.2544 433.2544 0 238.848 194.4064 433.2544 433.2544 433.2544 238.848 0 433.2544-194.4064 433.2544-433.2544 0-238.848-194.4064-433.2544-433.2544-433.2544zM415.3344 278.5792a39.424 39.424 0 0 1 41.0624 3.2256l287.488 209.0496a39.424 39.424 0 0 1 0 63.744l-287.488 209.0496a39.424 39.424 0 0 1-62.5664-31.7952V313.6512a39.424 39.424 0 0 1 21.504-35.072z" fill="#0DB2A5" p-id="4452"></path></svg>