<?xml version="1.0" standalone="no"?><!DOCTYPE svg PUBLIC "-//W3C//DTD SVG 1.1//EN" "http://www.w3.org/Graphics/SVG/1.1/DTD/svg11.dtd"><svg t="1755394283693" class="icon" viewBox="0 0 1024 1024" version="1.1" xmlns="http://www.w3.org/2000/svg" p-id="18519" xmlns:xlink="http://www.w3.org/1999/xlink" width="64" height="64"><path d="M902.802286 146.285714c-13.366857-81.590857-204.342857-146.285714-438.034286-146.285714S40.100571 64.694857 26.715429 146.285714h-0.804572v676.571429h0.822857c13.366857 81.572571 204.342857 146.285714 438.034286 146.285714s424.667429-64.713143 438.034286-146.285714h0.822857V146.285714h-0.822857z" fill="#545E73" p-id="18520"></path><path d="M464.768 749.714286c-242.377143 0-438.857143-69.595429-438.857143-155.428572V822.857143h0.822857c13.366857 81.572571 204.342857 146.285714 438.034286 146.285714s424.667429-64.713143 438.034286-146.285714h0.822857V594.285714c0 85.833143-196.48 155.428571-438.857143 155.428572zM25.910857 585.142857v9.142857c0-3.072 0.329143-6.107429 0.822857-9.142857h-0.822857zM902.802286 585.142857c0.493714 3.035429 0.822857 6.070857 0.822857 9.142857V585.142857h-0.822857z" fill="#38454F" p-id="18521"></path><path d="M464.768 530.285714c-242.377143 0-438.857143-69.595429-438.857143-155.428571V603.428571h0.822857c13.366857 81.572571 204.342857 146.285714 438.034286 146.285715s424.667429-64.713143 438.034286-146.285715h0.822857V374.857143c0 85.833143-196.48 155.428571-438.857143 155.428571zM25.910857 365.714286v9.142857c0-3.072 0.329143-6.107429 0.822857-9.142857h-0.822857zM902.802286 365.714286c0.493714 3.035429 0.822857 6.070857 0.822857 9.142857V365.714286h-0.822857z" fill="#556080" p-id="18522"></path><path d="M25.910857 155.428571a438.857143 155.428571 0 1 0 877.714286 0 438.857143 155.428571 0 1 0-877.714286 0Z" fill="#91BAE1" p-id="18523"></path><path d="M464.768 310.857143c-242.377143 0-438.857143-69.595429-438.857143-155.428572V384h0.822857c13.366857 81.572571 204.342857 146.285714 438.034286 146.285714s424.667429-64.713143 438.034286-146.285714h0.822857V155.428571c0 85.833143-196.48 155.428571-438.857143 155.428572zM25.910857 146.285714v9.142857c0-3.072 0.329143-6.107429 0.822857-9.142857h-0.822857zM902.802286 146.285714c0.493714 3.035429 0.822857 6.070857 0.822857 9.142857V146.285714h-0.822857z" fill="#8697CB" p-id="18524"></path><path d="M778.660571 804.571429m-219.428571 0a219.428571 219.428571 0 1 0 438.857143 0 219.428571 219.428571 0 1 0-438.857143 0Z" fill="#71C386" p-id="18525"></path><path d="M888.374857 786.285714h-91.428571v-91.428571a18.285714 18.285714 0 0 0-36.571429 0v91.428571h-91.428571a18.285714 18.285714 0 0 0 0 36.571429h91.428571v91.428571a18.285714 18.285714 0 0 0 36.571429 0v-91.428571h91.428571a18.285714 18.285714 0 0 0 0-36.571429z" fill="#FFFFFF" p-id="18526"></path></svg>