<?xml version="1.0" standalone="no"?><!DOCTYPE svg PUBLIC "-//W3C//DTD SVG 1.1//EN" "http://www.w3.org/Graphics/SVG/1.1/DTD/svg11.dtd"><svg t="1755590269973" class="icon" viewBox="0 0 1024 1024" version="1.1" xmlns="http://www.w3.org/2000/svg" p-id="60255" xmlns:xlink="http://www.w3.org/1999/xlink" width="64" height="64"><path d="M512 808.2432c-254.464 0-460.8-73.6768-460.8-164.5568v164.5568C51.2 899.1232 257.536 972.8 512 972.8s460.8-73.6768 460.8-164.5568v-164.608c0 90.9312-206.336 164.608-460.8 164.608z m0-197.4784c-254.464 0-460.8-73.6768-460.8-164.5568v164.5568c0 90.88 206.336 164.5568 460.8 164.5568s460.8-73.6768 460.8-164.5568V446.1568c0 90.9312-206.336 164.608-460.8 164.608z m0-197.4784c-254.464 0-460.8-73.6768-460.8-164.5568v164.5568c0 90.88 206.336 164.5568 460.8 164.5568s460.8-73.6768 460.8-164.5568V248.6784c0 90.88-206.336 164.5568-460.8 164.5568zM51.2 215.808c0 90.88 206.2848 164.5568 460.8 164.5568s460.8-73.6768 460.8-164.5568S766.5152 51.2 512 51.2 51.2 124.8768 51.2 215.7568z" fill="#68829A" p-id="60256"></path></svg>