<?xml version="1.0" standalone="no"?><!DOCTYPE svg PUBLIC "-//W3C//DTD SVG 1.1//EN" "http://www.w3.org/Graphics/SVG/1.1/DTD/svg11.dtd"><svg t="1755485334898" class="icon" viewBox="0 0 1024 1024" version="1.1" xmlns="http://www.w3.org/2000/svg" p-id="14677" xmlns:xlink="http://www.w3.org/1999/xlink" width="64" height="64"><path d="M617.6 505.6c41.6-25.6 92.8-38.4 144-41.6 44.8-22.4 70.4-51.2 70.4-80V256c0-70.4-144-128-320-128S192 185.6 192 256v128c0 70.4 144 128 320 128 35.2 0 70.4-3.2 105.6-6.4zM832 470.4V448c0 6.4-3.2 16-6.4 22.4h6.4z" fill="#FFB115" p-id="14678"></path><path d="M534.4 576H512c-176 0-320-57.6-320-128v128c0 64 121.6 118.4 278.4 128 12.8-48 32-92.8 64-128zM464 832v-48-16-3.2C310.4 758.4 192 704 192 640v128c0 64 118.4 118.4 272 124.8V832z" fill="#FFB115" p-id="14679"></path><path d="M768 960c-54.4 0-102.4-22.4-134.4-57.6L704 832h-192v192l73.6-73.6c48 44.8 112 73.6 182.4 73.6 140.8 0 256-115.2 256-256h-64c0 105.6-86.4 192-192 192zM950.4 585.6C902.4 540.8 838.4 512 768 512c-140.8 0-256 115.2-256 256h64c0-105.6 86.4-192 192-192 54.4 0 102.4 22.4 134.4 57.6L832 704h192v-192l-73.6 73.6z" fill="#039C23" p-id="14680"></path></svg>