<?xml version="1.0" standalone="no"?><!DOCTYPE svg PUBLIC "-//W3C//DTD SVG 1.1//EN" "http://www.w3.org/Graphics/SVG/1.1/DTD/svg11.dtd"><svg t="1755486227096" class="icon" viewBox="0 0 1024 1024" version="1.1" xmlns="http://www.w3.org/2000/svg" p-id="44793" xmlns:xlink="http://www.w3.org/1999/xlink" width="64" height="64"><path d="M494.8992 216.5248c180.8384 0 271.2064 90.4192 271.2064 271.2064v193.536c0 180.8384-90.368 271.2576-271.2064 271.2576-180.7872 0-271.2064-90.4192-271.2064-271.2064V487.7312c0-180.7872 90.4192-271.2064 271.2064-271.2064z" fill="#009A29" p-id="44794"></path><path d="M102.4 339.2h785.0496V437.248H102.4V339.2zM102.4 535.4496h785.0496v98.1504H102.4v-98.1504zM102.4 731.6992h785.0496v98.1504H102.4v-98.1504z" fill="#009A29" p-id="44795"></path><path d="M448.9216 676.5056h92.0064c30.72 0 46.0288 15.36 46.0288 46.0288s-15.36 45.9776-46.0288 45.9776H448.9216c-30.6688 0-45.9776-15.36-45.9776-45.9776 0-30.72 15.36-46.0288 45.9776-46.0288zM448.9216 492.544h92.0064c30.72 0 46.0288 15.3088 46.0288 45.9776s-15.36 45.9776-46.0288 45.9776H448.9216c-30.6688 0-45.9776-15.36-45.9776-45.9776 0-30.72 15.36-46.0288 45.9776-46.0288z" fill="#FFFFFF" p-id="44796"></path><path d="M740.2496 167.424L632.9344 281.6c-21.6576 21.6576-43.3664 21.6576-65.024 0-21.7088-21.7088-21.7088-43.4176 0-65.0752L675.2256 102.4l65.024 65.024zM249.6 167.424L356.864 281.6c21.6576 21.6576 43.3664 21.6576 65.024 0 21.7088-21.7088 21.7088-43.4176 0-65.0752L314.624 102.4l-65.024 65.024z" fill="#009A29" p-id="44797"></path></svg>