<?xml version="1.0" standalone="no"?><!DOCTYPE svg PUBLIC "-//W3C//DTD SVG 1.1//EN" "http://www.w3.org/Graphics/SVG/1.1/DTD/svg11.dtd"><svg t="1755485305225" class="icon" viewBox="0 0 1024 1024" version="1.1" xmlns="http://www.w3.org/2000/svg" p-id="12850" xmlns:xlink="http://www.w3.org/1999/xlink" width="64" height="64"><path d="M492.64 641.472l55.136 55.136-0.032 0.032 55.104 55.072L524.8 829.76c-80.896 80.928-207.584 87.808-296.544 21.152L97.92 981.216a38.944 38.944 0 1 1-55.104-55.072l130.368-130.368c-66.656-88.992-59.808-215.648 21.12-296.544l78.016-78.016 55.104 55.072v-0.032l55.072 55.072-0.032 0.032 110.176 110.144v-0.032z" fill="#333333" p-id="12851"></path><path d="M382.464 531.328l-55.072-55.072 91.776-91.744a38.976 38.976 0 0 1 55.04 55.072l-91.744 91.744z m268.48 45.952a39.04 39.04 0 0 0-66.496-27.552l-91.808 91.744 55.136 55.136 91.712-91.808c7.328-7.264 11.424-17.216 11.456-27.52z" fill="#C9C9C9" p-id="12852"></path><path d="M531.36 382.496l-55.104-55.072 0.032-0.032-55.04-55.072 78.016-78.048c80.896-80.896 207.552-87.776 296.544-21.12l130.336-130.336a38.944 38.944 0 1 1 55.072 55.104l-130.368 130.368c66.688 88.992 59.776 215.648-21.088 296.544l-78.016 78.016-55.072-55.072h-0.064l-55.072-55.072v-0.032l-110.112-110.144-0.064-0.032z" fill="#333333" p-id="12853"></path><path d="M629.92 785.312a159.936 159.936 0 0 0 160 160c88.384 0 160-71.584 160-160 0-88.384-71.616-160-160-160s-160 71.616-160 160z m32 0c0-29.6 10.112-56.704 26.976-78.4l179.424 179.424a127.264 127.264 0 0 1-78.4 26.976 128 128 0 0 1-128-128z m256 0c0 28.416-9.472 56-26.976 78.4l-179.456-179.424a127.616 127.616 0 0 1 78.432-26.976 128 128 0 0 1 128 128z m0 0" fill="#EE4646" p-id="12854"></path></svg>