<?xml version="1.0" standalone="no"?><!DOCTYPE svg PUBLIC "-//W3C//DTD SVG 1.1//EN" "http://www.w3.org/Graphics/SVG/1.1/DTD/svg11.dtd"><svg t="1755485269060" class="icon" viewBox="0 0 1024 1024" version="1.1" xmlns="http://www.w3.org/2000/svg" p-id="11004" xmlns:xlink="http://www.w3.org/1999/xlink" width="64" height="64"><path d="M64 512a448 448 0 1 1 896 0A448 448 0 0 1 64 512z m192 195.072v-0.256c12.608 16.512 26.88 31.808 42.88 45.888a316.544 316.544 0 0 0 132.864 69.76c50.112 12.672 100.16 13.44 150.08 2.048a314.56 314.56 0 0 0 140.48-72.32 314.56 314.56 0 0 0 89.216-130.496 316.48 316.48 0 0 0 16.512-149.12 316.48 316.48 0 0 0-52.736-140.48 314.56 314.56 0 0 0-118.592-104.448 314.56 314.56 0 0 0-153.984-35.52c-51.2 1.28-99.456 14.272-144.896 38.912a316.544 316.544 0 0 0-111.552 100.288 314.56 314.56 0 0 0-54.08 148.48 31.936 31.936 0 0 0 31.808 35.264 32 32 0 0 0 31.808-28.736 253.44 253.44 0 0 1 132.48-199.04 253.44 253.44 0 0 1 239.232-2.752 253.44 253.44 0 0 1 137.024 195.968 253.376 253.376 0 0 1-84.608 223.68 253.44 253.44 0 0 1-232.448 56.192 253.376 253.376 0 0 1-157.248-117.312H320a32 32 0 0 0 0-64H224a32 32 0 0 0-32 32v96a32 32 0 0 0 64 0zM512 352a32 32 0 0 0-32 32v128a32 32 0 0 0 9.344 22.656l64 64a32 32 0 1 0 45.312-45.312L544 498.752V384a32 32 0 0 0-32-32z" fill="#D48806" p-id="11005"></path></svg>