<?xml version="1.0" standalone="no"?><!DOCTYPE svg PUBLIC "-//W3C//DTD SVG 1.1//EN" "http://www.w3.org/Graphics/SVG/1.1/DTD/svg11.dtd"><svg t="1755486289027" class="icon" viewBox="0 0 1024 1024" version="1.1" xmlns="http://www.w3.org/2000/svg" p-id="48322" xmlns:xlink="http://www.w3.org/1999/xlink" width="64" height="64"><path d="M265.856 1024c-49.6 0-65.344-42.112-88.32-83.2-25.6-44.8-130.432-212.48-130.432-212.48a52.928 52.928 0 0 1 54.4-51.2l614.4-0.832c44.16 0 63.168 41.408 75.712 71.104l144.384 276.16H265.856m502.4-384.704c30.08 0 48.64 34.304 65.472 65.216l143.168 268.8v-537.6a52.928 52.928 0 0 0-54.4-51.2h-272.192a52.928 52.928 0 0 0-54.4 51.2v46.336l-308.992 0.96c-44.416 0-59.328 28.544-75.712 55.232l-55.232 100.48z" fill="#6795FB" p-id="48323"></path><path d="M433.6 261.248C428.288 17.6 589.184 28.032 694.72 90.112 539.264-62.976 290.432-30.464 297.536 261.248H170.432l196.608 209.472 196.608-209.472z" fill="#6795FB" p-id="48324"></path></svg>