<?xml version="1.0" standalone="no"?><!DOCTYPE svg PUBLIC "-//W3C//DTD SVG 1.1//EN" "http://www.w3.org/Graphics/SVG/1.1/DTD/svg11.dtd"><svg t="1755485100309" class="icon" viewBox="0 0 1024 1024" version="1.1" xmlns="http://www.w3.org/2000/svg" p-id="3458" xmlns:xlink="http://www.w3.org/1999/xlink" width="64" height="64"><path d="M737.4 844.915c0 5.06-4.077 9.155-9.1 9.155H127.7c-5.023 0-9.1-4.096-9.1-9.155v-521.83c0-5.06 4.077-9.155 9.1-9.155h600.6c5.023 0 9.1 4.096 9.1 9.155v521.83zM755.6 259H100.4C80.297 259 64 275.395 64 295.62V872.38C64 892.604 80.297 909 100.4 909h655.2c20.103 0 36.4-16.395 36.4-36.62V295.62c0-20.225-16.297-36.62-36.4-36.62z" fill="#868A91" p-id="3459"></path><path d="M792 443V295.557c0-20.19-16.297-36.557-36.4-36.557H100.4C80.297 259 64 275.367 64 295.558V443h728z" fill="#868A91" p-id="3460"></path><path d="M960 342.435c0 127.267-102.567 230.436-229.09 230.436-126.525 0-229.092-103.169-229.092-230.436C501.818 215.17 604.385 112 730.91 112 857.433 112 960 215.169 960 342.435" fill="#2BB28B" p-id="3461"></path><path d="M184.4 739.258c15.785 8.954 34.246 12.23 50.922 12.23 31.267 0 43.176-9.543 43.176-28.94 0.595-14.024-8.633-23.275-29.18-28.345l-32.164-8.055c-28.585-7.166-43.473-26.558-43.473-56.994 0-38.192 27.099-64.154 78.015-64.154 19.656 0 40.797 2.687 58.366 12.832l-11.91 34.314c-15.184-8.953-29.482-11.635-44.964-11.635-28.585 0-39.305 10.741-39.305 25.659 0 17.604 6.844 23.87 25.607 28.345l32.159 8.06c28.888 7.16 47.348 28.94 47.348 58.776 0.298 37.596-24.417 65.649-81.89 65.649-25.31 0-47.944-3.586-66.107-14.322l13.4-33.42zM440.512 750.23l-17.175-20.344 24.282-19.453 17.47 20.947c2.371-4.492 3.85-10.175 4.742-16.758 2.365-22.148 2.07-53.264 0.887-70.321-2.075-32.322-15.401-43.692-41.753-43.692-23.395 0.901-37.903 12.869-39.683 43.692-0.887 17.057-1.478 48.173 0.887 70.32 2.962 28.129 18.659 37.108 38.796 37.108 3.85-0.298 7.698-0.602 11.547-1.499m-89.725-28.427c-2.37-25.733-2.075-58.055-0.887-82.592C351.97 591.634 382.767 565 428.965 565c46.193 0 79.065 26.336 81.135 74.21 1.188 24.538 1.483 56.86-0.887 82.593-1.479 16.759-7.403 31.122-17.175 41.894l15.395 18.556L484.043 802l-17.47-20.947c-10.665 4.188-23.395 6.584-37.608 6.584-42.645 0-74.624-26.037-78.178-65.834M554 784V569h37.726v178.87H685V784z" fill="#868A91" p-id="3462"></path><path d="M865.33 311.79H761.38V207.224c0-4.512-3.64-8.173-8.126-8.173h-44.683c-4.49 0-8.125 3.661-8.125 8.173V311.79H596.49c-4.485 0-8.125 3.661-8.125 8.173v44.945c0 4.511 3.64 8.173 8.125 8.173h103.956v104.566c0 4.512 3.635 8.168 8.125 8.168h44.683c4.485 0 8.125-3.656 8.125-8.168V373.081H865.33c4.49 0 8.126-3.662 8.126-8.173v-44.945c0-4.512-3.635-8.173-8.126-8.173" fill="#FFFFFF" p-id="3463"></path></svg>