<?xml version="1.0" standalone="no"?><!DOCTYPE svg PUBLIC "-//W3C//DTD SVG 1.1//EN" "http://www.w3.org/Graphics/SVG/1.1/DTD/svg11.dtd"><svg t="1755485811267" class="icon" viewBox="0 0 1024 1024" version="1.1" xmlns="http://www.w3.org/2000/svg" p-id="2579" xmlns:xlink="http://www.w3.org/1999/xlink" width="64" height="64"><path d="M512 64c249.6 0 448 198.4 448 448s-198.4 448-448 448-448-198.4-448-448 198.4-448 448-448m0-64C230.4 0 0 230.4 0 512s230.4 512 512 512 512-230.4 512-512-230.4-512-512-512z" fill="#EF4343" p-id="2580"></path><path d="M544 384H396.8l83.2-83.2c12.8-12.8 12.8-32 0-44.8s-32-12.8-44.8 0L300.8 390.4c-6.4 6.4-12.8 19.2-12.8 25.6 0 6.4 0 19.2 6.4 25.6L435.2 576c12.8 12.8 32 12.8 44.8 0s12.8-32 0-44.8L396.8 448h147.2c70.4 0 128 57.6 128 128s-57.6 128-128 128H377.6c-19.2 0-32 12.8-32 32s12.8 32 32 32h166.4c108.8 0 192-83.2 192-192s-89.6-192-192-192z" fill="#EF4343" p-id="2581"></path></svg>