<?xml version="1.0" standalone="no"?><!DOCTYPE svg PUBLIC "-//W3C//DTD SVG 1.1//EN" "http://www.w3.org/Graphics/SVG/1.1/DTD/svg11.dtd"><svg t="1755485588242" class="icon" viewBox="0 0 1024 1024" version="1.1" xmlns="http://www.w3.org/2000/svg" p-id="36988" xmlns:xlink="http://www.w3.org/1999/xlink" width="64" height="64"><path d="M743.9 352.7l-246 250.5L262 352.7z" fill="#666666" p-id="36989"></path><path d="M418.2 416.3V110.7c0-0.6 0.4-1 1-1h167.6c0.6 0 1 0.4 1 1v305.5c0 0.6-0.4 1-1 1H419.2c-0.6 0.1-1-0.4-1-0.9zM783.4 619.4h-561c-22.1 0-40 17.9-40 40v105.3c0 22.1 17.9 40 40 40h561c22.1 0 40-17.9 40-40V659.4c0-22.1-17.9-40-40-40zM743 727.8c-18 0-32.7-7-32.7-15.7s14.6-15.7 32.7-15.7 32.7 7 32.7 15.7-14.7 15.7-32.7 15.7z" fill="#666666" p-id="36990"></path></svg>