<?xml version="1.0" standalone="no"?><!DOCTYPE svg PUBLIC "-//W3C//DTD SVG 1.1//EN" "http://www.w3.org/Graphics/SVG/1.1/DTD/svg11.dtd"><svg t="1755485472576" class="icon" viewBox="0 0 1024 1024" version="1.1" xmlns="http://www.w3.org/2000/svg" p-id="27008" xmlns:xlink="http://www.w3.org/1999/xlink" width="64" height="64"><path d="M442.5728 67.106133v306.449067H136.192z" fill="#999999" p-id="27009"></path><path d="M496.981333 66.423467v352.597333H126.976v150.186667h712.4992V66.423467z" fill="#999999" p-id="27010"></path><path d="M34.133333 607.6416h919.210667v414.5152H34.133333z" fill="#FABE79" p-id="27011"></path><path d="M275.592533 935.799467c72.2944 0 101.034667-27.579733 101.034667-79.0528 0-48.878933-13.653333-68.539733-76.458667-83.694934-38.570667-9.079467-44.6464-15.086933-44.6464-32.1536 0-22.3232 12.4928-27.989333 42.3936-27.989333 21.981867 0 52.224 5.256533 65.1264 9.4208v-47.3088c-13.994667-4.9152-37.546667-9.4208-67.3792-9.4208-60.962133 0-96.119467 21.162667-96.119466 76.8 0 46.967467 16.247467 62.805333 72.2944 75.776 40.072533 9.762133 47.650133 16.9984 47.650133 37.000533 0 23.483733-11.332267 31.402667-46.148267 31.402667-26.487467 0-57.9584-4.5056-74.205866-10.581333v50.3808c16.247467 4.5056 45.738667 9.4208 76.458666 9.4208z m370.8928 51.131733l-45.738666-57.890133c43.144533-12.9024 66.218667-49.629867 66.218666-128.341334 0-107.1104-42.052267-135.168-119.261866-135.168-76.049067 0-119.1936 28.0576-119.1936 135.168 0 105.949867 42.325333 135.168 117.3504 135.168l32.904533 51.063467h67.720533z m-98.781866-99.191467c-48.059733 0-58.641067-22.3232-58.641067-87.04 0-63.965867 10.581333-88.200533 58.709333-88.200533 48.469333 0 58.9824 24.234667 58.9824 88.200533 0 64.7168-10.581333 87.04-59.050666 87.04z m342.2208 44.305067v-49.9712h-104.448V669.354667h-57.5488v262.690133h161.9968z" fill="#482C0D" p-id="27012"></path></svg>