<?xml version="1.0" standalone="no"?><!DOCTYPE svg PUBLIC "-//W3C//DTD SVG 1.1//EN" "http://www.w3.org/Graphics/SVG/1.1/DTD/svg11.dtd"><svg t="1755590334695" class="icon" viewBox="0 0 1024 1024" version="1.1" xmlns="http://www.w3.org/2000/svg" p-id="64561" xmlns:xlink="http://www.w3.org/1999/xlink" width="64" height="64"><path d="M73.142857 138.971429h877.714286v212.114285H73.142857z" fill="#2D8CF0" p-id="64562"></path><path d="M921.6 351.085714V512h-182.857143V351.085714h-29.257143V512H526.628571V351.085714h-29.257142V512H285.257143V351.085714H73.142857v533.942857h877.714286V351.085714h-29.257143z m0 190.171429v153.6h-182.857143V541.257143h182.857143z m-212.114286 0v153.6H526.628571V541.257143h182.857143z m-212.114285 0v153.6H285.257143V541.257143h212.114286z m-212.114286 314.514286V724.114286h212.114286v131.657143H285.257143z m241.371428 0V724.114286h182.857143v131.657143H526.628571z m212.114286 0V724.114286h182.857143v131.657143h-182.857143z" fill="#2D8CF0" opacity=".2" p-id="64563"></path></svg>