<?xml version="1.0" standalone="no"?><!DOCTYPE svg PUBLIC "-//W3C//DTD SVG 1.1//EN" "http://www.w3.org/Graphics/SVG/1.1/DTD/svg11.dtd"><svg t="1755590356418" class="icon" viewBox="0 0 1024 1024" version="1.1" xmlns="http://www.w3.org/2000/svg" p-id="67281" xmlns:xlink="http://www.w3.org/1999/xlink" width="64" height="64"><path d="M106.88 127.99h756.17v174.892H106.878z" fill="#1B65B9" p-id="67282"></path><path d="M106.88 224.32h58.01v601.534H106.88V224.32z m698.136 0h58.346v194.78h-58.346v-194.78z" fill="#1B65B9" p-id="67283"></path><path d="M153.05 767.746h360.908v58.108H153.05v-58.108z m0-174.324h302.806v58.108H153.05v-58.108z m0-174.324h360.556v58.108H153.05V419.1z" fill="#1B65B9" p-id="67284"></path><path d="M339.47 224.32h58.192V780.42h-58.192V224.32z m232.772 7.602h58.194v187.176H572.24V231.92zM852.312 764.76c13.984-25.096 39.556-38.27 63.77-35.27a222.96 222.96 0 0 0 5.434-48.854c0-14.84-1.44-29.264-4.236-43.27-24.454 3.334-50.586-9.924-64.65-35.434-14.304-25.93-11.988-56.694 3.758-77.036-21.58-20.928-47.55-37.02-76.318-46.69-8.95 24.678-33.482 42.436-62.332 42.436s-53.382-17.76-62.332-42.436c-28.53 9.504-54.26 25.428-75.76 46.02 15.664 20.428 17.82 51.274 3.438 77.12-14.146 25.43-40.356 38.602-64.728 35.184a222.13 222.13 0 0 0-4.398 44.106c0 16.508 1.84 32.598 5.194 48.024 24.134-2.92 49.708 10.42 63.614 35.516 13.664 24.76 12.144 53.86-1.68 74.2 21.658 20.344 47.47 36.02 75.998 45.272 10.068-22.428 33.404-38.1 60.574-38.1 27.168 0 50.506 15.672 60.574 38.1 28.29-9.17 53.862-24.594 75.358-44.688-13.584-20.34-15.024-49.52-1.28-74.2z m-134.574 8.338c-48.908 0-88.624-41.44-88.624-92.462 0-51.026 39.716-92.462 88.624-92.462 48.908 0 88.624 41.352 88.624 92.46 0 51.026-39.716 92.464-88.624 92.464z" fill="#1B65B9" p-id="67285"></path></svg>