<?xml version="1.0" standalone="no"?><!DOCTYPE svg PUBLIC "-//W3C//DTD SVG 1.1//EN" "http://www.w3.org/Graphics/SVG/1.1/DTD/svg11.dtd"><svg t="1755486108612" class="icon" viewBox="0 0 1024 1024" version="1.1" xmlns="http://www.w3.org/2000/svg" p-id="27641" xmlns:xlink="http://www.w3.org/1999/xlink" width="64" height="64"><path d="M1024 1024H0V0h1024v1024zM64 960h896V64H64v896z" fill="#1296db" p-id="27642"></path><path d="M32 128h960v64H32zM224 320h64v64H224zM352 320h64v64h-64zM480 320h64v64h-64zM608 320h64v64h-64zM736 320h64v64h-64zM480 448h64v352h-64z" fill="#1296db" p-id="27643"></path><path d="M512 845.248l-118.624-118.624 45.248-45.248L512 754.752l73.376-73.376 45.248 45.248z" fill="#1296db" p-id="27644"></path></svg>